# xmcd
#
# Track frame offsets:
#	150
#	16996
#	30984
#	46221
#	61050
#	74168
#	86110
#	96807
#	111167
#	125207
#	136848
#	145675
#	155907
# Disc length: 2265 seconds
# Revision: 1
# Processed by: cddbd v1.5PL3 Copyright (c) Steve Scherf et al.
#
# Submitted via: libkcddb 0.10
#
DISCID=b608d70d
DTITLE=Ted Thompson - The Good Old Aussie Way
DYEAR=1900
DGENRE=
TTITLE0=I'm Coming Back Next Year
TTITLE1=Condermine Just Keep On Flowing
TTITLE2=Terry Cahill The Legend
TTITLE3=When McCullan Drove The People Mover
TTITLE4=Silver Spurs
TTITLE5=Clem English
TTITLE6=The Good Old Aussie Way
TTITLE7=Second Time Around
TTITLE8=Vision From My Past
TTITLE9=Bull Ride
TTITLE10=Joyce Roser
TTITLE11=Singing With Slim
TTITLE12=When The Country's Wet
EXTD=
EXTT0=
EXTT1=
EXTT2=
EXTT3=
EXTT4=
EXTT5=
EXTT6=
EXTT7=
EXTT8=
EXTT9=
EXTT10=
EXTT11=
EXTT12=
PLAYORDER=
